<svg xmlns="http://www.w3.org/2000/svg" xmlns:xlink="http://www.w3.org/1999/xlink" id="Layer_1" x="0px" y="0px" viewBox="0 0 141.7 141.7" xml:space="preserve"><path stroke="#FFFFFF" stroke-width="2.2985" stroke-miterlimit="10" d="M71.8,6.5C35.7,6.5,6.5,35.9,6.5,71.8 c0,36.1,29.3,65.4,65.4,65.4s65.4-29.3,65.4-65.4C137.2,35.9,107.8,6.5,71.8,6.5z"></path><path fill="#FFFFFF" d="M91.5,23.2c-0.2,2.3-1.8,4.1-4.3,3.8C87.5,24.2,88.7,23,91.5,23.2z"></path><path fill="#FFFFFF" d="M92.1,27.7c-0.3,2.8-2.2,5-5.3,4.6C87.2,28.9,88.8,27.5,92.1,27.7z"></path><path fill="#FFFFFF" d="M87.1,35.5c0,0,0.1-0.1,0.1-0.2c0-0.1,0.1-0.1,0.1-0.2c1.1-1.7,3-2.3,5.4-2c-0.6,3.6-2.7,6-6.3,5.6 C86.3,37.5,86.5,36.4,87.1,35.5z"></path><path fill="#FFFFFF" d="M91.1,39.5c-0.3,2.8-2.2,5-5.3,4.6C86.2,40.8,87.7,39.4,91.1,39.5z"></path><path fill="#FFFFFF" d="M82.7,22.3c2.7,0.4,3.8,1.7,3.6,4.4C83.7,26.7,82.5,24.7,82.7,22.3z"></path><path fill="#FFFFFF" d="M81.3,26.8c3.3,0.4,4.6,2.1,4.4,5.5C82.6,32.2,81.1,29.6,81.3,26.8z"></path><path fill="#FFFFFF" d="M79.8,32c2.4,0.2,4.1,1.1,4.9,2.9c0,0,0.1,0.1,0.1,0.2c0,0.1,0.1,0.1,0.1,0.2c0.4,1,0.5,2.1,0.2,3.3 C81.3,38.3,79.7,35.7,79.8,32z"></path><path fill="#FFFFFF" d="M84.6,44.1c-3.1-0.1-4.6-2.7-4.4-5.5C83.6,39,84.8,40.7,84.6,44.1z"></path><path fill="#FFFFFF" d="M72,38.8c-0.3-1.8,0.4-3.6,1.2-4.5c0.9-1,2.6-1.6,4.5-1.6C77.5,36.2,75.8,38.7,72,38.8z"></path><path fill="#FFFFFF" d="M76.8,39.2c0,2.8-1.7,5.2-4.8,5.1C72,40.9,73.4,39.3,76.8,39.2z"></path><path fill="#FFFFFF" d="M72,32.4c-0.1-1.2,0-2.3,0.5-3.3c0,0,0.1-0.1,0.1-0.2c0-0.1,0.1-0.1,0.1-0.2c0.9-1.8,2.7-2.6,5.1-2.5 C77.5,29.9,75.7,32.4,72,32.4z"></path><path fill="#FFFFFF" d="M72,26c0.1-3.4,1.5-5,4.8-5.1C76.8,23.7,75.1,26.1,72,26z"></path><path fill="#FFFFFF" d="M75.8,16.6c0,2.3-1.4,4.3-4,4.2C71.9,18,73,16.7,75.8,16.6z"></path><path fill="#FFFFFF" d="M70.8,20.8c-2.6,0.1-3.9-1.8-4-4.2C69.6,16.7,70.7,18,70.8,20.8z"></path><path fill="#FFFFFF" d="M70.8,26c-3.1,0.1-4.8-2.3-4.8-5.1C69.3,21,70.7,22.6,70.8,26z"></path><path fill="#FFFFFF" d="M70.1,28.8c0,0,0.1,0.1,0.1,0.2s0.1,0.1,0.1,0.2c0.5,1,0.7,2.1,0.5,3.3C67,32.5,65.2,30,65,26.4 C67.3,26.2,69.1,27,70.1,28.8z"></path><path fill="#FFFFFF" d="M69.5,34.1c0.9,0.9,1.5,2.7,1.2,4.5c-3.7,0-5.6-2.6-5.8-6.2C66.9,32.5,68.5,33.1,69.5,34.1z"></path><path fill="#FFFFFF" d="M70.8,44.3C67.7,44.4,66,42,66,39.2C69.3,39.3,70.7,40.9,70.8,44.3z"></path><path fill="#FFFFFF" d="M57.7,38.6c-0.3-1.2-0.2-2.3,0.2-3.3c0-0.1,0.1-0.1,0.1-0.2s0-0.1,0.1-0.2c0.9-1.8,2.6-2.7,4.9-2.9 C63.1,35.7,61.4,38.3,57.7,38.6z"></path><path fill="#FFFFFF" d="M58.1,44.1c-0.2-3.4,1-5.1,4.4-5.5C62.8,41.4,61.3,44,58.1,44.1z"></path><path fill="#FFFFFF" d="M57.1,32.3c-0.2-3.4,1-5.1,4.4-5.5C61.7,29.6,60.2,32.2,57.1,32.3z"></path><path fill="#FFFFFF" d="M60.1,22.3c0.2,2.3-1,4.4-3.6,4.4C56.3,24.1,57.5,22.7,60.1,22.3z"></path><path fill="#FFFFFF" d="M57,44.2c-3.1,0.4-5-1.8-5.3-4.6C55,39.4,56.6,40.8,57,44.2z"></path><path fill="#FFFFFF" d="M55.6,27c-2.6,0.4-4.1-1.5-4.3-3.8C54,23,55.3,24.2,55.6,27z"></path><path fill="#FFFFFF" d="M56,32.4c-3.1,0.4-5-1.8-5.3-4.6C54,27.5,55.6,28.9,56,32.4z"></path><path fill="#FFFFFF" d="M55.5,35.2c0,0,0.1,0.1,0.1,0.2c0,0,0.1,0.1,0.1,0.2c0.6,0.9,0.8,2,0.8,3.2c-3.7,0.4-5.8-1.9-6.3-5.6 C52.5,32.9,54.4,33.5,55.5,35.2z"></path><path fill="#FFFFFF" d="M66.6,108.3c-2,1.5-4.4,2.4-6.9,2.6c0.9-2.4,2.5-4.4,4.4-5.9c2-1.5,4.4-2.4,6.9-2.6 C70.1,104.8,68.6,106.7,66.6,108.3z"></path><path fill="#FFFFFF" d="M71.6,103.7c0.9,1.8,2.1,3.4,3.6,4.7c0,0.1,0,0.2,0,0.3c0,2.8-1.3,5.4-3.6,7.1c-2.3-1.7-3.6-4.3-3.6-7.1 c0-0.1,0-0.2,0-0.3C69.6,107.1,70.7,105.5,71.6,103.7z"></path><path fill="#FFFFFF" d="M61.6,111.6c1.9-0.4,3.7-1.2,5.3-2.4c0.1,1.2,0.4,2.5,0.9,3.5c-0.2,0.5-0.3,0.9-0.4,1.4 c-1.1,2.1-3.1,3.5-5.4,4C61,116.1,60.8,113.7,61.6,111.6z"></path><path fill="#FFFFFF" d="M65.2,122.9c-0.9-1.2-1.4-2.7-1.2-4.3c1.2-0.6,2.4-1.4,3.3-2.5c0.1,1.2,0.4,2.4,0.9,3.4 C67.7,121.1,66.7,122.3,65.2,122.9z"></path><path fill="#FFFFFF" d="M71.6,127.2c-1.8-1.3-2.9-3.4-3.1-5.6c0.2-0.3,0.3-0.5,0.5-0.8c0.7,0.9,1.4,1.8,2.5,2.5l0.3,0.2l0.3-0.2 c0.9-0.7,1.7-1.4,2.4-2.4c0.2,0.3,0.3,0.6,0.5,0.8C74.5,123.9,73.4,125.9,71.6,127.2z"></path><path fill="#FFFFFF" d="M71.6,122.2c-2-1.5-3.2-3.9-3.2-6.4c0-0.6,0.1-1.1,0.2-1.6c0.7,1,1.6,2.1,2.7,2.7l0.3,0.2l0.3-0.2 c1.1-0.8,2-1.7,2.7-2.7c0.1,0.6,0.2,1,0.2,1.6C74.8,118.3,73.6,120.7,71.6,122.2z"></path><path fill="#FFFFFF" d="M77.8,122.9c-1.3-0.7-2.4-1.8-2.9-3.1c0.6-1.1,0.9-2.4,0.9-3.6c0.9,1,2,1.9,3.2,2.4 C79.3,120.1,78.9,121.7,77.8,122.9z"></path><path fill="#FFFFFF" d="M81.2,118.2c-2.4-0.5-4.4-2-5.5-4.1c-0.1-0.5-0.2-0.9-0.4-1.3c0.5-1.1,0.8-2.3,0.9-3.5 c1.6,1.1,3.5,2,5.4,2.4C82.5,113.7,82.3,116.1,81.2,118.2z"></path><path fill="#FFFFFF" d="M76.7,108.3c-2-1.5-3.5-3.5-4.4-5.9c2.5,0.2,4.8,1,6.9,2.6c2,1.5,3.6,3.5,4.4,5.9 C81.1,110.6,78.7,109.8,76.7,108.3z"></path><rect x="26.8" y="93.3" fill="#FFFFFF" width="89.6" height="5"></rect><polygon fill="#FFFFFF" points="74.4,83.2 74.4,58.2 79.3,58.2 79.3,88.5 74.3,88.5 64.2,84.6 64.2,58.2 69.1,58.2 69.1,81.3 "></polygon><polygon fill="#FFFFFF" points="93.1,83.2 93.1,58.2 98,58.2 98,88.5 93.1,88.5 82.9,84.6 82.9,58.2 87.8,58.2 87.8,81.3 "></polygon><polygon fill="#FFFFFF" points="101.2,63.4 101.2,58.2 116.3,58.2 116.3,63.4 111.2,63.4 111.2,88.5 106,88.5 106,63.4 "></polygon><rect x="26.8" y="48" fill="#FFFFFF" width="89.6" height="5"></rect><path fill="#FFFFFF" d="M57.1,75.6h3.6V58.1h-15v30.3h4.9V75.6h1.9v0.1L57,88.5h4.6L57.1,75.6z M55.8,70.8h-5.3V63h5.3V70.8z"></path><path fill="#FFFFFF" d="M42,58.2h-15v30.3h15V70.9h-2.7l2.7-7.8V58.2z M37.1,83.5h-5.3v-7.8h5.3V83.5z M34.7,70.9h-2.8v-7.8h5.5 L34.7,70.9z"></path></svg>